<svg id="svg" xmlns="http://www.w3.org/2000/svg" xmlns:xlink="http://www.w3.org/1999/xlink" width="400" height="521.4043035107588" viewBox="0, 0, 400,521.4043035107588"><g id="svgg"><path id="path0" d="M110.079 195.951 C 97.495 197.219,86.118 205.191,79.696 217.240 L 78.984 218.576 77.529 216.119 C 69.321 202.260,56.745 195.454,40.334 195.990 C 20.676 196.633,6.347 207.903,1.484 226.549 C -3.744 246.594,4.374 267.570,27.140 292.840 C 32.300 298.569,50.167 315.875,52.069 316.988 C 52.282 317.112,54.541 319.003,57.089 321.188 C 59.637 323.374,63.556 326.679,65.798 328.533 C 68.041 330.386,70.079 332.128,70.328 332.403 C 71.759 333.981,78.907 339.354,79.272 339.126 C 81.058 338.010,94.381 327.531,99.887 322.910 C 146.971 283.398,165.673 249.454,155.470 222.024 C 149.069 204.813,130.123 193.930,110.079 195.951 " stroke="none" fill="#fb0404" fill-rule="evenodd"></path><path id="path1" d="M243.488 0.157 C 237.784 0.769,229.088 2.172,221.276 3.741 L 216.392 4.723 214.843 3.943 C 213.088 3.060,213.221 3.056,209.129 4.097 C 200.888 6.194,190.367 10.624,186.246 13.732 C 180.206 18.290,182.680 34.977,189.921 38.516 C 194.359 40.685,203.959 36.840,216.541 27.855 C 222.039 23.929,222.059 23.897,222.345 18.747 C 222.464 16.593,222.561 16.070,222.854 15.982 C 223.053 15.923,225.612 15.413,228.539 14.848 C 247.731 11.146,257.992 10.150,260.995 11.698 C 266.248 14.405,274.727 22.484,282.294 31.991 C 297.835 51.517,313.042 79.701,327.069 114.973 L 329.961 122.245 329.595 124.826 C 329.387 126.287,329.099 127.507,328.931 127.637 C 328.690 127.824,328.747 128.169,329.229 129.449 C 336.344 148.317,337.991 170.724,333.398 186.182 C 324.555 215.950,292.177 231.822,255.526 224.355 C 232.676 219.701,204.764 205.501,183.523 187.726 C 182.496 186.866,181.528 186.188,181.372 186.219 C 181.215 186.251,180.730 185.933,180.294 185.514 C 179.858 185.094,178.707 184.376,177.735 183.917 C 176.198 183.191,175.773 182.849,174.474 181.292 C 128.588 126.280,107.498 86.155,115.845 69.748 C 120.354 60.886,128.785 53.761,139.410 49.834 C 143.013 48.502,142.688 48.473,143.891 50.231 C 147.021 54.806,147.808 54.968,157.191 52.987 C 164.476 51.448,177.057 46.981,178.184 45.532 C 179.361 44.019,179.132 35.337,177.784 30.351 C 176.372 25.131,172.610 21.131,168.181 20.140 C 166.155 19.686,158.096 22.575,149.845 26.713 C 140.246 31.527,138.881 32.725,138.855 36.361 L 138.845 37.728 135.504 39.344 C 117.064 48.261,104.203 63.056,103.793 75.824 C 102.852 105.141,143.355 169.223,204.397 234.994 C 206.015 236.738,207.573 238.424,207.857 238.741 L 208.374 239.316 207.588 241.119 C 206.559 243.475,206.392 243.028,209.672 246.712 C 219.456 257.702,233.556 270.478,246.659 280.227 C 274.153 300.683,300.501 309.136,321.810 304.336 L 324.142 303.811 324.901 305.190 C 332.396 318.788,356.023 363.690,363.526 378.596 C 373.664 398.734,376.294 406.646,377.689 421.207 C 380.056 445.916,370.465 475.959,356.639 487.140 C 341.873 499.082,318.423 503.211,299.887 497.134 C 288.403 493.369,279.844 487.448,255.719 466.582 C 222.093 437.497,199.684 426.490,175.651 427.251 C 163.631 427.632,156.439 429.798,137.146 438.847 C 124.022 445.002,119.391 446.666,113.478 447.351 C 92.144 449.820,69.889 425.450,63.200 392.294 C 59.891 375.895,60.940 365.632,68.751 337.982 C 69.572 335.078,70.211 332.569,70.172 332.407 C 70.134 332.245,67.961 330.335,65.345 328.162 C 62.729 325.989,58.731 322.617,56.461 320.668 C 54.191 318.720,52.292 317.196,52.241 317.283 C 52.190 317.370,51.376 320.040,50.431 323.216 C 42.650 349.383,39.270 366.417,39.736 377.123 C 41.742 423.174,68.243 462.276,101.472 468.213 C 104.411 468.738,114.094 468.608,117.509 467.997 C 125.232 466.617,131.585 464.485,145.980 458.442 C 161.369 451.983,166.733 450.130,172.489 449.288 C 189.852 446.748,207.056 453.888,231.031 473.585 C 234.316 476.284,237.492 478.991,250.736 490.381 C 269.842 506.812,281.313 514.092,294.244 517.996 C 327.098 527.916,365.919 515.897,382.298 490.736 C 392.920 474.417,399.610 452.542,399.933 433.069 C 400.323 409.571,393.924 389.094,374.913 353.001 C 371.522 346.564,355.198 315.911,348.790 303.949 L 343.383 293.855 346.733 290.472 C 368.700 268.287,375.376 224.450,364.873 171.348 C 364.521 169.566,364.446 169.507,362.061 169.147 L 360.023 168.839 359.640 167.715 C 359.430 167.097,358.572 164.400,357.734 161.721 C 356.895 159.043,355.105 153.651,353.756 149.739 C 350.958 141.628,351.133 142.334,351.869 142.149 C 352.646 141.954,352.921 142.870,347.961 129.165 L 343.488 116.804 342.390 116.317 L 341.291 115.829 339.762 112.105 C 321.817 68.399,303.841 39.605,277.848 12.932 C 269.648 4.518,267.914 3.184,263.307 1.746 C 259.332 0.506,248.410 -0.370,243.488 0.157 " stroke="none" fill="#040404" fill-rule="evenodd"></path></g></svg>